<?xml version="1.0" encoding="UTF-8" standalone="no"?>
<svg
   version="1.0"
   width="1175.8699pt"
   height="297.42358pt"
   viewBox="0 0 1175.8699 297.42359"
   preserveAspectRatio="xMidYMid"
   id="svg16"
   sodipodi:docname="logo-vertical.svg"
   inkscape:version="1.4 (86a8ad7, 2024-10-11)"
   xmlns:inkscape="http://www.inkscape.org/namespaces/inkscape"
   xmlns:sodipodi="http://sodipodi.sourceforge.net/DTD/sodipodi-0.dtd"
   xmlns="http://www.w3.org/2000/svg"
   xmlns:svg="http://www.w3.org/2000/svg">
  <defs
     id="defs16" />
  <sodipodi:namedview
     id="namedview16"
     pagecolor="#ffffff"
     bordercolor="#000000"
     borderopacity="0.25"
     inkscape:showpageshadow="2"
     inkscape:pageopacity="0.0"
     inkscape:pagecheckerboard="0"
     inkscape:deskcolor="#d1d1d1"
     inkscape:document-units="pt"
     inkscape:zoom="0.56068665"
     inkscape:cx="866.79432"
     inkscape:cy="321.9267"
     inkscape:window-width="1920"
     inkscape:window-height="991"
     inkscape:window-x="1691"
     inkscape:window-y="-9"
     inkscape:window-maximized="1"
     inkscape:current-layer="svg16" />
  <g
     id="g4"
     transform="translate(-28.375749,-582.55361)">
    <path
       d="m 1197.735,745.93186 c -1.0959,0.34127 -5.3546,2.33682 -9.518,4.47164 -4.1158,2.20444 -12.351,6.30909 -18.237,9.21427 -5.9336,2.83555 -13.0986,6.41198 -16.0049,7.99285 -2.8844,1.46357 -7.495,3.39326 -10.2696,4.2703 -6.0146,1.97049 -8.0383,1.1061 -9.6016,-4.16452 -0.9286,-3.14844 -2.4054,-12.77382 -2.6965,-17.3814 -0.033,-0.79542 -0.5629,-5.75115 -1.0962,-11.01111 -0.5334,-5.25998 -1.2436,-13.46704 -1.6302,-18.21387 -0.6481,-8.86323 -1.6606,-11.2382 -4.7251,-11.08319 -2.2689,0.12174 -2.9677,4.17981 -6.3387,40.03431 -0.471,5.43627 -1.5498,12.82284 -2.3696,16.55472 -1.193,5.72609 -1.7864,6.95061 -3.5787,7.76866 -2.4446,1.06019 -25.3414,-3.10342 -39.8586,-7.27724 -14.235,-4.06029 -13.7425,-0.20423 0.9448,8.25097 4.7626,2.77324 8.748,5.15818 8.891,5.36707 0.143,0.20889 3.7984,2.41067 8.1137,4.97878 9.3602,5.45489 12.1323,8.15916 11.3965,11.11756 -0.5783,2.44149 -9.585,12.29043 -17.1596,18.70415 -3.0343,2.58897 -9.0989,8.07115 -13.4705,12.29177 -4.4194,4.15096 -9.7,8.68716 -11.7889,10.11747 -4.1081,2.81295 -5.8558,5.3391 -4.8545,6.80138 0.3814,0.55704 1.3675,0.80232 2.2545,0.60405 1.9132,-0.49185 12.6665,-5.40012 14.9423,-6.8562 2.1366,-1.3606 18.5192,-9.10071 31.1819,-14.80506 15.6205,-6.91137 16.8965,-5.94408 19.2424,15.25699 0.1801,1.30855 0.342,3.03866 0.4449,3.78644 0.1028,0.74772 0.8783,6.66014 1.6613,13.18092 2.6797,21.68854 2.5806,21.24501 3.8202,23.05542 2.2408,3.27261 3.8008,-1.17059 5.515,-15.84467 2.6536,-21.9652 5.0679,-36.81177 6.4341,-39.89502 0.8682,-1.7195 2.0701,-2.95153 3.5837,-3.5789 2.6316,-1.08589 22.1045,2.55837 35.8483,6.64814 12.358,3.70904 22.9634,5.75447 24.4952,4.7056 2.3675,-1.62102 0.5193,-3.42389 -8.551,-8.15675 -28.7436,-15.09243 -38.1771,-20.8039 -41.0377,-24.98172 -1.2873,-1.88002 -1.2033,-2.65349 0.1486,-5.01094 0.9158,-1.64984 2.9237,-3.94521 4.3822,-5.25066 1.4585,-1.30546 5.1376,-4.74506 8.0984,-7.59059 2.9609,-2.84553 9.3298,-8.33147 14.1048,-12.11235 10.1289,-8.06049 18.2092,-15.22953 19.9568,-17.75574 1.5865,-2.31354 -0.061,-4.8679 -2.6737,-4.20353 z m -57.1757,44.05825 c -0.7879,0.64176 -1.843,2.38695 -2.3153,3.93766 -0.8092,2.70184 -0.7358,2.9584 2.8544,7.45487 1.9987,2.62024 4.3712,5.18901 5.1741,5.76425 0.8983,0.71447 0.4071,0.74398 -1.6604,0.1142 -7.9663,-2.52288 -10.5796,-1.85852 -13.415,3.56022 -1.099,1.97984 -1.7068,3.93012 -1.5161,4.20864 0.2384,0.34818 0.011,0.91274 -0.4761,1.24648 -0.557,0.38143 -1.4334,-0.45036 -2.7721,-2.70428 -1.0527,-1.83608 -2.8863,-4.36474 -4.0011,-5.54467 -1.8481,-1.80287 -2.7866,-1.97848 -7.1996,-1.10456 -2.7564,0.45549 -5.5786,1.2629 -6.2053,1.69199 -0.6744,0.35944 0.3989,-1.8073 2.3736,-4.89809 4.0191,-6.22924 3.9888,-8.66319 0.01,-14.32521 -2.5965,-3.64273 -2.4171,-4.27693 1.0105,-3.45335 2.7934,0.6442 7.0014,0.21754 8.6726,-0.92671 0.6266,-0.42909 1.6704,-3.08701 2.2449,-5.83275 l 0.944,-5.04421 0.8733,2.47032 c 0.532,1.37443 2.0652,4.21109 3.4955,6.29999 l 2.6223,3.82967 4.1822,-0.6136 c 2.3129,-0.35635 5.9267,-1.50126 7.9974,-2.51001 l 3.8153,-1.89643 -2.6233,3.63718 c -1.4509,1.91395 -3.3196,4.11396 -4.0856,4.6384 z"
       id="path1"
       style="fill:#ffd800;fill-opacity:1;stroke:none;stroke-width:0.0843886" />
    <path
       d="m 1157.1517,731.17336 c -2.1335,-0.27786 -2.2728,-0.1825 -3.6353,3.20499 -0.8424,1.9064 -3.1426,7.06104 -5.1938,11.53379 -4.5164,9.53581 -5.0327,11.32113 -3.8408,13.06189 1.335,1.94965 3.5557,-0.1845 7.1493,-6.73618 1.7621,-3.252 3.7989,-6.99895 4.4839,-8.38846 1.6705,-3.08701 4.1456,-11.12288 3.6688,-11.81918 -0.1906,-0.27852 -1.3895,-0.685 -2.6321,-0.85685 z"
       id="path2"
       style="fill:#ffd800;fill-opacity:1;stroke:none;stroke-width:0.0843886" />
    <path
       d="m 1193.8134,790.24311 c -1.1254,-0.1499 -4.5198,-0.17807 -7.5146,-0.0707 -3.0424,0.0377 -6.741,0.0133 -8.2403,-0.0851 -1.4992,-0.0984 -2.9508,-0.12728 -3.299,0.1111 -0.2785,0.19071 -2.3129,0.35636 -4.5122,0.43042 -4.1421,0.0747 -5.3697,1.11985 -3.8917,3.27839 1.0011,1.46224 9.3701,2.48208 18.4021,2.22972 3.299,-0.1111 7.3238,-0.20778 8.845,-0.22663 2.2947,0.0652 2.969,-0.29427 3.3756,-1.49307 0.5124,-2.08957 -0.8445,-3.92191 -3.1649,-4.17404 z"
       id="path3"
       style="fill:#ffd800;fill-opacity:1;stroke:none;stroke-width:0.0843886" />
    <path
       d="m 1091.2167,737.04628 c -3.4678,-0.28473 -3.3279,1.56269 0.879,8.60289 7.1999,12.45694 10.9074,16.97537 12.6481,15.78344 1.8104,-1.23959 0.9152,-3.59261 -5.3199,-13.74421 -5.5675,-9.17679 -6.6603,-10.47404 -8.2072,-10.64212 z"
       id="path5"
       style="fill:#ffd800;fill-opacity:1;stroke:none;stroke-width:0.0843886" />
    <path
       d="m 1154.0561,832.7045 c -3.1755,-3.144 -5.1221,-3.44756 -5.2531,-0.80096 -0.032,3.09015 13.7686,23.09596 16.3494,23.57898 4.7399,0.94773 3.9031,-2.3657 -3.0321,-12.34473 -3.1686,-4.47832 -6.7845,-9.16173 -8.0642,-10.43329 z"
       id="path6"
       style="fill:#ffd800;fill-opacity:1;stroke:none;stroke-width:0.0843886" />
    <path
       d="m 1107.0124,834.94931 c -1.961,0.42229 -4.0053,3.56074 -8.7783,13.16989 -5.3883,10.95107 -5.9265,12.85367 -4.1556,14.09572 1.1329,0.75837 1.7853,0.51624 3.8447,-1.40527 1.3411,-1.32738 2.858,-3.59322 3.4257,-5.0047 0.5896,-1.52878 1.2049,-2.87055 1.4138,-3.01362 0.209,-0.14301 1.8718,-3.83857 3.7142,-8.16826 3.1828,-7.59991 3.3358,-10.36383 0.5355,-9.67376 z"
       id="path11"
       style="fill:#ffd800;fill-opacity:1;stroke:none;stroke-width:0.0843886" />
    <path
       d="m 1042.6081,792.70932 c -29.4699,-0.11046 -65.92729,-0.38967 -92.05118,-0.6933 -14.04069,-0.19067 -35.54988,-0.28394 -47.84081,-0.33722 -12.14873,0.0339 -33.10026,-0.0916 -46.44104,-0.2273 -56.35913,-0.32223 -81.08326,-0.51595 -102.94237,-0.63669 -12.78312,-0.16791 -32.12715,-0.24311 -43.16058,-0.27365 -10.89119,0.0566 -32.33486,-0.18346 -47.69855,-0.25006 -15.29821,-0.21343 -36.94962,-0.39384 -47.84081,-0.33721 -11.0334,-0.0305 -30.9351,-0.0736 -44.62581,-0.23675 -40.23005,-0.34747 -69.34998,-0.43046 -95.25493,-0.41297 -13.5485,-0.076 -34.15004,-0.17402 -46.2333,-0.28697 -11.73329,-0.0855 -28.91219,-0.14266 -37.78047,-0.15514 -18.43642,-0.0799 -25.51199,-0.86346 -35.81576,-4.55986 -8.50395,-8.94224 -42.3445,-11.45536 -59.95579,0.83904 -3.89858,2.72159 -11.7968,2.49295 -16.25806,2.75052 -7.59949,0.39106 -45.58767,0.2956 -63.82763,-0.2248 -4.82244,-0.15072 -18.65539,-0.40106 -30.73864,-0.51402 -40.65673,-0.60894 -84.32072,-1.37802 -86.35489,-1.6897 -7.64448,-1.13212 -42.9211,-1.62255 -50.57483,-0.70386 -18.01901,2.23234 -19.00203,11.82685 -18.82008,20.3512 0.50011,9.84101 0.75417,18.12119 19.10461,20.01806 6.02575,0.70102 61.56327,-0.78891 88.47303,-2.24713 4.81121,-0.2301 10.60676,-0.23091 13.05635,-0.0382 2.44959,0.19228 5.58782,0.0585 6.83411,-0.29921 1.24629,-0.35807 14.91452,-0.95648 30.4747,-1.33032 15.56016,-0.37385 41.23488,-1.09324 57.06825,-1.6736 15.97561,-0.49329 31.18583,-0.89461 33.84315,-0.76192 4.82242,0.15074 28.61675,7.61112 38.38337,9.6697 9.90885,2.14574 25.67782,2.89311 39.78065,-4.79965 7.03267,-8.59966 20.18411,-6.11378 38.81702,-6.4743 12.00651,-0.12098 23.31312,-0.29701 24.92061,-0.24676 1.95743,0.0781 9.98357,-0.0521 17.72529,-0.35579 8.09165,-0.27644 18.98285,-0.33311 24.36296,-0.21457 5.23787,0.0309 10.33352,-0.0244 11.16439,-0.26311 0.62315,-0.17903 10.53001,-0.4649 21.62891,-0.58117 11.09888,-0.11634 29.52409,-0.41718 40.97293,-0.50597 11.51435,-0.2357 28.26656,-0.43994 37.34256,-0.48718 8.93374,-0.13432 25.75144,-0.48539 37.05807,-0.66134 11.37213,-0.32278 30.70491,-0.62841 43.06134,-0.72191 12.21421,-0.18067 30.28947,-0.50906 39.98861,-0.73525 9.55691,-0.31335 27.07451,-0.60947 38.38111,-0.7855 11.65656,-0.14846 26.10143,-0.45791 32.23566,-0.81208 6.27646,-0.267 12.27971,-0.32758 13.32953,-0.24505 1.19206,0.1696 15.77913,-0.0528 32.80453,-0.46353 16.88318,-0.49791 42.49248,-1.07055 56.93729,-1.38 14.44487,-0.30945 26.3746,-0.66443 26.79006,-0.78379 0.41539,-0.11936 9.90685,-0.28587 20.86353,-0.48938 11.09889,-0.11626 22.26331,-0.37938 24.35173,-0.59532 2.23061,-0.12879 13.60269,-0.45157 25.05157,-0.54036 11.65655,-0.14846 26.80127,-0.40303 33.98538,-0.67475 7.18403,-0.27173 24.62483,-0.80184 39.27743,-1.17097 23.4441,-0.59069 26.6478,-0.87095 28.68,-2.99084 1.3548,-1.41333 0.5219,-3.60623 -2.0494,-5.55574 -3.928,-2.96781 -5.6123,-3.25202 -20.4838,-3.204 z"
       id="path12"
       style="fill:#a05a2c;fill-opacity:1;stroke:none;stroke-width:0.163063"
       sodipodi:nodetypes="cccccccccccccsccccccccccsccccccccsscccccccccsscccsssccc" />
    <path
       d="m 44.979629,583.85361 c 0,0.7 2.1,3.3 4.6,5.69999 8.5,8.3 7.9,3.3 8.2,68.79997 0.2,40.79999 -0.1,59.49998 -0.8,62.39998 -0.8,2.8 -3.1,6.1 -7.2,10.39999 -3.3,3.5 -5.7,6.8 -5.3,7.4 0.5,0.7 15.5,1 50.6,1 l 50.000011,-0.1 0.8,-2.2 c 1.2,-3.1 4.99999,-28.09999 5.29999,-34.69999 0.4,-6.49999 -1.69999,-7.89999 -4.49999,-2.99999 -3.50001,5.79999 -12.70001,14.69999 -18.40001,17.79999 -8.2,4.3 -16,6.1 -29.600001,6.9 l -11.8,0.6 0.3,-61.39998 c 0.3,-69.49997 -0.2,-64.69997 8.7,-73.39997 2.8,-2.69999 5.100001,-5.49999 5.100001,-6.19999 0,-1 -5.800001,-1.3 -28.000001,-1.3 -22.2,0 -28,0.3 -28,1.3 z"
       id="path4"
       style="fill:#ffffff;fill-opacity:1;stroke:none;stroke-width:0.1" />
    <path
       d="m 276.37963,639.35358 c -20,9.6 -18.8,8.4 -13.2,13.19999 3.1,2.7 5.1,5.4 5.8,7.8 1.4,5 1.3,62.19998 -0.1,65.89998 -0.5,1.49999 -2.8,4.69999 -5.1,6.99999 -2.2,2.2 -3.7,4.6 -3.4,5.2 1,1.5 44.2,1.5 45.2,0 0.4,-0.6 -1.2,-2.8 -3.5,-4.9 -7,-6.4 -7.1,-6.99999 -7.1,-41.99998 v -31.09999 l 2.5,-2.5 c 5.5,-5.5 17,-7.19999 23.2,-3.4 6.6,4 6.8,5 6.8,39.99999 0,34.79998 0,34.89998 -6.5,40.39998 -1.7,1.4 -2.8,3 -2.5,3.6 0.4,0.6 8.9,1 22.6,1 24.7,0 25.1,-0.1 18,-6.6 -5.6,-5 -6.1,-8.49999 -6.1,-42.29998 v -28.89999 l 3.5,-3.1 c 5.3,-4.7 9.4,-6.4 15.1,-6.4 6.8,0 12,3.1 14.5,8.7 1.7,3.7 1.9,7 1.9,34.09999 0,29.29999 -0.1,30.09999 -2.3,33.69998 -1.2,2 -3.4,4.6 -4.9,5.8 -1.6,1.2 -2.8,2.8 -2.8,3.6 0,1.2 3.6,1.4 21.9,1.4 14.2,0 22.2,-0.4 22.6,-1 0.4,-0.6 -1.2,-3.1 -3.4,-5.5 -2.2,-2.4 -4.3,-5.4 -4.6,-6.69999 -0.2,-1.3 -0.6,-17.4 -0.8,-35.79999 -0.2,-32.19999 -0.3,-33.69999 -2.5,-39.19998 -1.6,-4 -3.8,-7.1 -7.3,-10.2 -6.8,-6.1 -12.7,-7.9 -23.8,-7.4 -9.9,0.5 -15.2,2.8 -23.9,10.4 l -5.1,4.4 -4.8,-5.1 c -7,-7.5 -12.6,-9.9 -23.8,-9.9 -7.9,0 -9.8,0.4 -15,2.9 -3.3,1.5 -7.7,4.2 -9.9,6 -2.1,1.7 -4.3,3.1 -4.7,3.1 -0.5,0 -0.9,-2.7 -0.9,-5.9 0,-3.3 -0.4,-6.2 -0.8,-6.5 -0.5,-0.3 -7.1,2.5 -14.8,6.2 z"
       id="path7"
       style="fill:#ffffff;fill-opacity:1;stroke:none;stroke-width:0.1" />
    <path
       d="m 554.07963,634.05358 c -14.7,3.3 -24.3,14.9 -24.3,29.09999 0,13.4 6.7,21.29999 28.1,33.29999 6.9,3.8 14.1,8.49999 15.8,10.29999 4.1,4.3 5.1,9.4 2.8,14.2 -4.5,9.39999 -18.7,9.49999 -29.1,0.3 -4.2,-3.7 -12.4,-14.6 -12.4,-16.4 0,-1.6 -2.2,-3.19999 -3.6,-2.6 -1.1,0.4 -1.4,3.7 -1.4,15.7 0,8.3 0.3,16.09999 0.6,17.29999 0.8,2.8 10.9,5.3 24.5,6 15.1,0.9 23.9,-1.9 32.9,-10.3 11.7,-10.89999 12.7,-29.39998 2.4,-41.69998 -4.1,-4.9 -10,-9 -20.8,-14.59999 -12.5,-6.4 -16.4,-9.4 -18.3,-13.8 -3.7,-9.09999 4.3,-16.09999 16,-13.89999 4.4,0.8 11.1,6.69999 17.7,15.59999 2.9,3.9 5.7,7 6.2,7 1.3,0 0.4,-30.79999 -0.9,-31.99999 -1.2,-1.2 -15,-3.9 -22.9,-4.5 -4.2,-0.3 -9.4,0.1 -13.3,1 z"
       id="path8"
       style="fill:#ffffff;fill-opacity:1;stroke:none;stroke-width:0.1" />
    <path
       d="m 459.17963,635.35358 c -23.8,8.5 -37.9,38.49999 -31.7,67.69997 5.4,25.19999 24.5,39.79999 50,38.19999 28.8,-1.7 48.4,-30.49999 43.5,-63.89998 -2.6,-18.19999 -12.5,-32.89998 -26.9,-39.99998 -5.8,-2.9 -7.3,-3.2 -18,-3.5 -9.4,-0.3 -12.6,0 -16.9,1.5 z m 18.2,13.3 c 5.9,1.6 11.9,8.39999 15,17.09999 4.9,13.79999 5.5,30.59999 1.6,43.89998 -2.3,7.8 -5.3,12.5 -10,15.7 -2.9,1.99999 -4.4,2.29999 -9.2,1.99999 -7.8,-0.59999 -12.1,-4.09999 -17.1,-13.89999 -5.1,-10 -7,-19.79999 -6.4,-31.89999 1,-17.69999 5.2,-27.49999 13.7,-31.79998 5,-2.5 6.8,-2.7 12.4,-1.1 z"
       id="path9"
       style="fill:#ffffff;fill-opacity:1;stroke:none;stroke-width:0.1" />
    <path
       d="m 151.97963,635.85358 c 0,0.7 1.6,2.9 3.6,4.8 6.8,6.5 6.7,5.7 7.3,44.89998 0.6,33.09999 0.8,35.79999 2.7,39.99999 2.6,5.69999 7.60001,10.69999 13.4,13.29999 5.4,2.6 19.5,3 25,0.7 4.1,-1.6 14,-8.1 15.9,-10.4 2.4,-2.89999 3.1,-1.7 3.1,5.4 0,6 0.3,7 1.7,7 2.4,0 29.4,-9 31.1,-10.3 1,-0.8 0.7,-1.4 -1.7,-2.9 -5.9,-3.79999 -6.1,-5.49999 -6.1,-51.79997 v -41.99999 h -18 c -20.09999,0 -20.5,0.2 -14.4,6.1 6.30001,6 6.4,6.5 6.4,41.29998 0,31.39999 0,31.49999 -2.2,33.59999 -6.39999,6 -17,8.1 -23.5,4.7 -1.9,-1 -4.3,-3.6 -5.5,-6 -2.3,-4.1 -2.3,-4.9 -2.5,-41.69998 l -0.3,-37.49999 -17.99999,-0.3 c -14.40001,-0.2 -18.00001,0 -18.00001,1.1 z"
       id="path10"
       style="fill:#ffffff;fill-opacity:1;stroke:none;stroke-width:0.1" />
    <path
       d="m 643.65447,592.61443 c 0,0.8 2.1,3.39999 4.6,5.79999 8,7.8 7.5,3.4 7.5,66.89998 0.1,49.09998 -0.1,57.19997 -1.4,59.79997 -1.6,3 -9.6,11.3 -10.9,11.3 -0.5,0 -0.8,0.7 -0.8,1.6 0,1.4 4.2,1.5 40.8,1.1 46,-0.4 47.7,-0.7 64,-8.7 24.7,-12.29999 37.2,-33.69999 37.2,-63.99997 0,-30.09999 -12.8,-52.79998 -37.1,-65.89998 -14.8,-7.99999 -18,-8.39999 -63.6,-8.89999 -33.5,-0.3 -40.3,-0.1 -40.3,1 z m 70.4,13.29999 c 19,5 32.4,19.89999 37.6,41.89998 6.3,26.29999 1.2,51.49998 -13.1,65.89998 -9.8,9.79999 -19.9,13.19999 -41.6,14.09999 l -11.3,0.4 V 665.7144 603.11442 l 11.3,0.6 c 6.1,0.4 13.9,1.3 17.1,2.2 z"
       id="path13"
       style="fill:#ffffff;fill-opacity:1;stroke:none;stroke-width:0.1" />
    <path
       d="m 918.35447,608.11442 c -10.2,12.09999 -17.4,19.19999 -31.9,31.49999 -4.3,3.6 -5.5,5.2 -5.1,6.79999 0.5,1.8 1.3,2 8.4,2 h 7.8 l 0.3,37.69999 c 0.3,37.39998 0.3,37.79998 2.6,42.29998 1.3,2.5 3.3,5.5 4.5,6.8 6,6.5 20.7,8.3 30.5,3.7 7.4,-3.4 18.1,-14.9 15.9,-17.1 -0.3,-0.3 -3.3,0 -6.8,0.6 -6.9,1.3 -11.9,0.7 -15.6,-1.7 -5.1,-3.39999 -5.3,-4.69999 -5.3,-39.69998 V 648.5144 l 12.2,-0.3 12.3,-0.3 2.3,-4.79999 c 1.2,-2.7 2,-5.2 1.7,-5.8 -0.4,-0.5 -6.9,-0.9 -14.6,-0.9 h -13.9 v -13.9 c 0,-17.99999 -0.7,-19.89999 -5.3,-14.39999 z"
       id="path14"
       style="fill:#ffffff;fill-opacity:1;stroke:none;stroke-width:0.1" />
    <path
       d="m 817.15447,637.71441 c -8.3,3 -16.5,11.09999 -19.4,18.99999 -2.5,6.9 -3.8,16.19999 -2.3,17.09999 0.6,0.3 5.8,-3.8 11.7,-9.09999 13.6,-12.5 16.5,-14.4 21.9,-15 12,-1.4 19.6,7.5 19.6,22.69999 0,4.5 1.3,3.8 -18,8.5 -26.2,6.4 -39.4,18.49999 -39.4,35.99999 0,7.99999 2,12.89999 7.6,18.19999 5.1,4.9 10.2,6.6 19.3,6.5 9.4,0 16.3,-2.2 25.4,-8.3 6.3,-4.2 7.1,-4.5 7.1,-2.7 0,2.2 5.3,8 8.6,9.4 4.8,2 9.2,1.7 14.9,-1 5.8,-2.7 13.5,-9.1 13.5,-11.2 0,-1 -1.2,-1.4 -3.8,-1.4 -4.1,0 -7.5,-1.9 -9.4,-5.3 -0.9,-1.59999 -1.4,-10.79999 -1.8,-32.19998 -0.5,-29.69999 -0.5,-30.09999 -3.1,-35.49999 -3.3,-7 -7.9,-11.69999 -14.9,-14.89999 -4.9,-2.2 -7,-2.6 -18.5,-2.8 -11.4,-0.2 -13.7,0 -19,2 z m 31.5,64.19997 c 0,13.7 -0.1,14.5 -2.2,16.5 -10.6,9.99999 -26.6,7.69999 -29.6,-4.1 -2.8,-11 6.2,-20.59999 23.8,-25.29999 3,-0.8 6.1,-1.5 6.8,-1.5 0.9,-0.1 1.2,3.4 1.2,14.39999 z"
       id="path15"
       style="fill:#ffffff;fill-opacity:1;stroke:none;stroke-width:0.1" />
    <path
       d="m 983.95447,636.91441 c -10.6,3.3 -18.5,10.49999 -22.2,20.19999 -2.5,6.4 -4,17.29999 -2.4,17.29999 1.2,0 7.8,-5.59999 18.4,-15.59999 8.4,-7.9 12.7,-9.9 19.6,-9.1 8.90003,1 14.19993,8.2 14.60003,20.1 l 0.2,6.79999 -10.5,2.4 c -25.10003,5.6 -37.30003,12.6 -43.80003,24.89999 -2.2,4.1 -2.7,6.3 -2.7,12.5 0,6.39999 0.5,8.29999 2.7,11.99999 3.4,5.8 6.2,8.4 12.1,11 5.9,2.6 17.1,2.8 24.1,0.5 5.4,-1.8 14.00003,-6.7 17.30003,-9.8 1.3,-1.1 2.3999,-1.9 2.5,-1.6 0.2,0.2 1.2,2.2 2.3,4.4 3.8,7.7 13.7,10.4 22.6,6.1 3.9,-1.8 13.9,-10.2 13.9,-11.7 0,-0.5 -1.7,-0.9 -3.7,-0.9 -2.1001,0 -4.9,-0.6 -6.3,-1.3 -5,-2.5 -5.4,-5.1 -5.5,-33.19998 -0.1,-16.4 -0.6,-28.09999 -1.4,-31.69999 -2.4,-11 -10.9,-19.89999 -22.4,-23.29999 -6.3,-1.9 -23.50003,-1.9 -29.40003,0 z m 28.50003,65.19997 -0.4001,14.6 -3.4999,2.9 c -5,4.19999 -12.00003,6.09999 -17.50003,4.69999 -11.9,-3 -14.4,-17.49999 -4.6,-26.59999 4.8,-4.39999 18.20003,-10.09999 24.09993,-10.19999 l 2.4001,-0.1 z"
       id="path16"
       style="fill:#ffffff;fill-opacity:1;stroke:none;stroke-width:0.1" />
  </g>
</svg>
