<?xml version="1.0" encoding="UTF-8" standalone="no"?>
<svg
   version="1.0"
   width="757.000000pt"
   height="517.000000pt"
   viewBox="0 0 757.000000 517.000000"
   preserveAspectRatio="xMidYMid meet"
   id="svg16"
   sodipodi:docname="logo.svg"
   inkscape:version="1.4 (86a8ad7, 2024-10-11)"
   xmlns:inkscape="http://www.inkscape.org/namespaces/inkscape"
   xmlns:sodipodi="http://sodipodi.sourceforge.net/DTD/sodipodi-0.dtd"
   xmlns="http://www.w3.org/2000/svg"
   xmlns:svg="http://www.w3.org/2000/svg">
  <defs
     id="defs16" />
  <sodipodi:namedview
     id="namedview16"
     pagecolor="#ffffff"
     bordercolor="#000000"
     borderopacity="0.25"
     inkscape:showpageshadow="2"
     inkscape:pageopacity="0.0"
     inkscape:pagecheckerboard="0"
     inkscape:deskcolor="#d1d1d1"
     inkscape:document-units="pt"
     inkscape:zoom="0.79293066"
     inkscape:cx="524.00546"
     inkscape:cy="324.74466"
     inkscape:window-width="1920"
     inkscape:window-height="991"
     inkscape:window-x="1691"
     inkscape:window-y="-9"
     inkscape:window-maximized="1"
     inkscape:current-layer="svg16" />
  <g
     transform="matrix(0.1,0,0,-0.09999996,-0.45642397,509.98868)"
     fill="#000000"
     stroke="none"
     id="g16"
     style="fill:#ffffff">
    <path
       d="m 6631,5078 c -4,-13 -13,-68 -20,-123 -6,-55 -21,-163 -32,-240 -12,-77 -25,-171 -29,-210 -5,-38 -17,-96 -27,-129 -21,-72 -43,-86 -105,-66 -37,12 -141,62 -188,90 -8,5 -60,33 -115,63 -55,30 -140,78 -189,106 -91,53 -121,59 -140,28 -14,-23 21,-57 349,-330 50,-41 115,-101 146,-134 48,-50 56,-64 52,-87 -6,-31 -200,-227 -338,-341 -135,-112 -94,-133 87,-46 59,28 109,51 112,51 3,0 49,21 103,46 116,55 161,64 185,37 20,-22 56,-176 68,-293 5,-47 18,-143 30,-214 11,-71 20,-153 20,-183 0,-59 13,-93 34,-93 8,0 17,8 21,18 8,22 32,160 33,192 1,30 35,242 64,404 37,199 55,205 278,86 14,-7 32,-17 40,-21 8,-4 71,-36 140,-72 230,-119 225,-117 251,-117 47,0 14,45 -118,160 -197,173 -326,296 -347,330 -11,20 -15,40 -11,59 7,33 173,199 305,306 119,96 210,186 210,208 0,34 -30,28 -137,-29 -340,-180 -459,-234 -519,-234 -27,0 -34,6 -48,35 -10,20 -19,55 -22,78 -3,23 -12,82 -20,130 -8,48 -19,147 -24,219 -11,153 -27,280 -40,314 -12,31 -48,32 -59,2 z m 48,-854 c 1,-12 11,-34 23,-49 21,-26 24,-27 92,-22 39,2 80,8 91,12 13,4 10,-1 -10,-17 -78,-61 -89,-91 -55,-155 12,-24 27,-43 31,-43 5,0 9,-6 9,-13 0,-8 -14,-11 -45,-9 -25,2 -62,1 -81,-2 -30,-6 -38,-14 -59,-63 -14,-30 -25,-63 -25,-72 -1,-9 -15,16 -32,56 -34,81 -58,97 -140,96 -53,-1 -58,5 -27,33 25,23 49,67 49,91 0,9 -19,37 -42,61 l -43,43 30,-8 c 17,-4 55,-8 85,-8 h 55 l 22,45 c 12,25 25,68 29,95 l 7,50 18,-50 c 9,-27 18,-60 18,-71 z"
       id="path1"
       style="fill:#ffd800;fill-opacity:1" />
    <path
       d="m 6215,4780 c -17,-19 -17,-21 7,-57 13,-21 48,-78 78,-128 63,-108 77,-125 102,-125 28,0 22,36 -18,115 -20,39 -43,84 -52,100 -19,37 -81,115 -91,115 -4,0 -16,-9 -26,-20 z"
       id="path2"
       style="fill:#ffd800;fill-opacity:1" />
    <path
       d="m 7038,4743 c -9,-10 -32,-43 -51,-73 -20,-30 -45,-66 -56,-80 -11,-14 -21,-28 -21,-33 0,-4 -12,-25 -26,-47 -27,-41 -25,-60 6,-60 21,0 87,75 145,165 21,33 47,73 57,88 16,22 17,31 8,43 -17,19 -44,18 -62,-3 z"
       id="path3"
       style="fill:#ffd800;fill-opacity:1" />
    <path
       d="m 10,4307 c 0,-7 21,-33 46,-57 85,-83 79,-33 82,-688 2,-408 -1,-595 -8,-624 -8,-28 -31,-61 -72,-104 -33,-35 -57,-68 -53,-74 5,-7 155,-10 506,-10 l 500,1 8,22 c 12,31 50,281 53,347 4,65 -17,79 -45,30 -35,-58 -127,-147 -184,-178 -82,-43 -160,-61 -296,-69 l -118,-6 3,614 c 3,695 -2,647 87,734 28,27 51,55 51,62 0,10 -58,13 -280,13 -222,0 -280,-3 -280,-13 z"
       id="path4"
       style="fill:#ffffff;fill-opacity:1" />
    <path
       d="m 5831,4096 c -26,-32 -7,-43 90,-49 170,-13 239,-7 239,18 0,26 -29,33 -170,40 -127,7 -147,5 -159,-9 z"
       id="path5"
       style="fill:#ffd800;fill-opacity:1" />
    <path
       d="m 7187,4070 c -52,-10 -68,-27 -43,-46 30,-21 318,-20 340,2 41,40 3,54 -141,53 -65,-1 -135,-5 -156,-9 z"
       id="path6"
       style="fill:#ffd800;fill-opacity:1" />
    <path
       d="m 2324,3752 c -200,-96 -188,-84 -132,-132 31,-27 51,-54 58,-78 14,-50 13,-622 -1,-659 -5,-15 -28,-47 -51,-70 -22,-22 -37,-46 -34,-52 10,-15 442,-15 452,0 4,6 -12,28 -35,49 -70,64 -71,70 -71,420 v 311 l 25,25 c 55,55 170,72 232,34 66,-40 68,-50 68,-400 0,-348 0,-349 -65,-404 -17,-14 -28,-30 -25,-36 4,-6 89,-10 226,-10 247,0 251,1 180,66 -56,50 -61,85 -61,423 v 289 l 35,31 c 53,47 94,64 151,64 68,0 120,-31 145,-87 17,-37 19,-70 19,-341 0,-293 -1,-301 -23,-337 -12,-20 -34,-46 -49,-58 -16,-12 -28,-28 -28,-36 0,-12 36,-14 219,-14 142,0 222,4 226,10 4,6 -12,31 -34,55 -22,24 -43,54 -46,67 -2,13 -6,174 -8,358 -2,322 -3,337 -25,392 -16,40 -38,71 -73,102 -68,61 -127,79 -238,74 -99,-5 -152,-28 -239,-104 l -51,-44 -48,51 c -70,75 -126,99 -238,99 -79,0 -98,-4 -150,-29 -33,-15 -77,-42 -99,-60 -21,-17 -43,-31 -47,-31 -5,0 -9,27 -9,59 0,33 -4,62 -8,65 -5,3 -71,-25 -148,-62 z"
       id="path7"
       style="fill:#ffffff;fill-opacity:1" />
    <path
       d="m 5101,3805 c -147,-33 -243,-149 -243,-291 0,-134 67,-213 281,-333 69,-38 141,-85 158,-103 41,-43 51,-94 28,-142 -45,-94 -187,-95 -291,-3 -42,37 -124,146 -124,164 0,16 -22,32 -36,26 -11,-4 -14,-37 -14,-157 0,-83 3,-161 6,-173 8,-28 109,-53 245,-60 151,-9 239,19 329,103 117,109 127,294 24,417 -41,49 -100,90 -208,146 -125,64 -164,94 -183,138 -37,91 43,161 160,139 44,-8 111,-67 177,-156 29,-39 57,-70 62,-70 13,0 4,308 -9,320 -12,12 -150,39 -229,45 -42,3 -94,-1 -133,-10 z"
       id="path8"
       style="fill:#ffffff;fill-opacity:1" />
    <path
       d="m 4152,3792 c -238,-85 -379,-385 -317,-677 54,-252 245,-398 500,-382 288,17 484,305 435,639 -26,182 -125,329 -269,400 -58,29 -73,32 -180,35 -94,3 -126,0 -169,-15 z m 182,-133 c 59,-16 119,-84 150,-171 49,-138 55,-306 16,-439 -23,-78 -53,-125 -100,-157 -29,-20 -44,-23 -92,-20 -78,6 -121,41 -171,139 -51,100 -70,198 -64,319 10,177 52,275 137,318 50,25 68,27 124,11 z"
       id="path9"
       style="fill:#ffffff;fill-opacity:1" />
    <path
       d="m 1080,3787 c 0,-7 16,-29 36,-48 68,-65 67,-57 73,-449 6,-331 8,-358 27,-400 26,-57 76,-107 134,-133 54,-26 195,-30 250,-7 41,16 140,81 159,104 24,29 31,17 31,-54 0,-60 3,-70 17,-70 24,0 294,90 311,103 10,8 7,14 -17,29 -59,38 -61,55 -61,518 v 420 h -180 c -201,0 -205,-2 -144,-61 63,-60 64,-65 64,-413 0,-314 0,-315 -22,-336 -64,-60 -170,-81 -235,-47 -19,10 -43,36 -55,60 -23,41 -23,49 -25,417 l -3,375 -180,3 c -144,2 -180,0 -180,-11 z"
       id="path10"
       style="fill:#ffffff;fill-opacity:1" />
    <path
       d="m 6894,3595 c -9,-22 8,-63 70,-174 71,-126 86,-144 110,-135 15,6 17,14 12,47 -4,22 -16,52 -26,67 -11,16 -20,31 -20,34 0,3 -25,44 -55,91 -53,82 -79,102 -91,70 z"
       id="path11"
       style="fill:#ffd800;fill-opacity:1" />
    <path
       d="m 6287,3518 c -67,-96 -151,-214 -212,-298 -33,-45 -82,-115 -110,-155 -27,-40 -75,-108 -106,-151 -129,-183 -186,-263 -236,-334 -30,-41 -74,-104 -99,-140 -24,-36 -74,-105 -109,-155 -36,-49 -86,-119 -110,-155 -25,-36 -70,-101 -102,-145 -93,-130 -159,-225 -217,-310 -31,-44 -78,-111 -106,-150 -27,-38 -66,-94 -86,-123 -42,-60 -64,-79 -116,-93 -79,-21 -128,-98 -128,-201 0,-22 -7,-52 -15,-68 -14,-27 -100,-151 -145,-208 -12,-15 -45,-59 -73,-98 -96,-130 -200,-269 -207,-274 -26,-19 -109,-132 -119,-162 -23,-71 13,-168 80,-213 78,-51 180,-52 236,-2 19,16 132,206 181,302 9,17 22,36 29,43 7,7 13,18 13,24 0,6 26,54 58,107 32,53 84,141 115,196 32,55 63,107 70,115 12,15 83,65 121,86 39,21 58,60 70,147 11,73 20,96 59,159 26,40 50,78 54,83 5,6 22,33 37,60 16,28 40,64 53,81 12,17 23,34 23,38 0,3 20,37 44,74 24,37 63,99 88,137 24,39 60,95 80,125 19,30 54,87 78,125 23,39 64,104 91,145 26,41 64,102 84,135 19,33 56,92 80,130 25,39 55,88 66,110 12,22 25,42 28,45 4,3 35,52 70,110 34,58 87,145 117,194 30,49 54,90 54,92 0,2 20,34 43,71 24,37 47,75 50,83 4,8 27,47 52,85 25,39 57,90 71,115 14,25 49,85 79,135 48,80 53,92 41,110 -8,12 -27,21 -48,23 -32,3 -38,-1 -71,-50 z"
       id="path12"
       style="fill:#a05a2c;fill-opacity:1" />
    <path
       d="m 30,2398 c 0,-8 21,-34 46,-58 80,-78 75,-34 75,-669 1,-491 -1,-572 -14,-598 -16,-30 -96,-113 -109,-113 -5,0 -8,-7 -8,-16 0,-14 42,-15 408,-11 460,4 477,7 640,87 247,123 372,337 372,640 0,301 -128,528 -371,659 -148,80 -180,84 -636,89 -335,3 -403,1 -403,-10 z m 704,-133 c 190,-50 324,-199 376,-419 63,-263 12,-515 -131,-659 -98,-98 -199,-132 -416,-141 l -113,-4 v 625 626 l 113,-6 c 61,-4 139,-13 171,-22 z"
       id="path13"
       style="fill:#ffffff;fill-opacity:1" />
    <path
       d="m 2777,2243 c -102,-121 -174,-192 -319,-315 -43,-36 -55,-52 -51,-68 5,-18 13,-20 84,-20 h 78 l 3,-377 c 3,-374 3,-378 26,-423 13,-25 33,-55 45,-68 60,-65 207,-83 305,-37 74,34 181,149 159,171 -3,3 -33,0 -68,-6 -69,-13 -119,-7 -156,17 -51,34 -53,47 -53,397 v 325 l 122,3 123,3 23,48 c 12,27 20,52 17,58 -4,5 -69,9 -146,9 h -139 v 139 c 0,180 -7,199 -53,144 z"
       id="path14"
       style="fill:#ffffff;fill-opacity:1" />
    <path
       d="m 1765,1947 c -83,-30 -165,-111 -194,-190 -25,-69 -38,-162 -23,-171 6,-3 58,38 117,91 136,125 165,144 219,150 120,14 196,-75 196,-227 0,-45 13,-38 -180,-85 -262,-64 -394,-185 -394,-360 0,-80 20,-129 76,-182 51,-49 102,-66 193,-65 94,0 163,22 254,83 63,42 71,45 71,27 0,-22 53,-80 86,-94 48,-20 92,-17 149,10 58,27 135,91 135,112 0,10 -12,14 -38,14 -41,0 -75,19 -94,53 -9,16 -14,108 -18,322 -5,297 -5,301 -31,355 -33,70 -79,117 -149,149 -49,22 -70,26 -185,28 -114,2 -137,0 -190,-20 z m 315,-642 c 0,-137 -1,-145 -22,-165 -106,-100 -266,-77 -296,41 -28,110 62,206 238,253 30,8 61,15 68,15 9,1 12,-34 12,-144 z"
       id="path15"
       style="fill:#ffffff;fill-opacity:1" />
    <path
       d="m 3433,1955 c -106,-33 -185,-105 -222,-202 -25,-64 -40,-173 -24,-173 12,0 78,56 184,156 84,79 127,99 196,91 89,-10 142,-82 146,-201 l 2,-68 -105,-24 c -251,-56 -373,-126 -438,-249 -22,-41 -27,-63 -27,-125 0,-64 5,-83 27,-120 34,-58 62,-84 121,-110 59,-26 171,-28 241,-5 54,18 140,67 173,98 13,11 24,19 25,16 2,-2 12,-22 23,-44 38,-77 137,-104 226,-61 39,18 139,102 139,117 0,5 -17,9 -37,9 -21,0 -49,6 -63,13 -50,25 -54,51 -55,332 -1,164 -6,281 -14,317 -24,110 -109,199 -224,233 -63,19 -235,19 -294,0 z m 285,-652 -4,-146 -35,-29 c -50,-42 -120,-61 -175,-47 -119,30 -144,175 -46,266 48,44 182,101 241,102 l 24,1 z"
       id="path16"
       style="fill:#ffffff;fill-opacity:1" />
  </g>
</svg>
