<?xml version="1.0" standalone="no"?>
<!DOCTYPE svg PUBLIC "-//W3C//DTD SVG 20010904//EN"
 "http://www.w3.org/TR/2001/REC-SVG-20010904/DTD/svg10.dtd">
<svg version="1.0" xmlns="http://www.w3.org/2000/svg"
 width="306.000000pt" height="306.000000pt" viewBox="0 0 306.000000 306.000000"
 preserveAspectRatio="xMidYMid meet">

<g transform="translate(0.000000,306.000000) scale(0.100000,-0.100000)"
fill="#000000" stroke="none">
<path d="M1415 2499 c-88 -39 -239 -103 -335 -144 -175 -74 -486 -206 -720
-305 -148 -64 -200 -107 -224 -191 -9 -29 -16 -62 -16 -74 0 -42 29 -118 60
-157 l31 -39 -30 -34 c-29 -34 -61 -117 -61 -160 0 -42 28 -115 60 -155 l33
-41 -26 -27 c-43 -47 -61 -92 -61 -162 -1 -70 26 -140 68 -179 57 -52 41 -48
1116 -271 129 -27 255 -53 280 -59 57 -13 115 -14 138 -1 9 5 172 80 362 166
190 86 387 176 438 200 51 24 95 44 97 44 2 0 39 16 82 36 43 20 110 51 150
69 72 33 91 55 78 93 -3 11 -17 24 -31 31 -30 13 -7 23 -534 -219 -195 -89
-398 -182 -450 -205 -52 -24 -129 -59 -170 -78 l-75 -35 -140 29 c-77 16 -205
43 -285 60 -80 16 -242 50 -360 74 -118 24 -291 60 -385 79 -93 20 -183 42
-200 51 -59 31 -82 113 -50 176 18 34 69 69 103 69 29 0 199 -34 1014 -205
l317 -66 88 42 c48 22 126 58 173 79 99 44 162 73 320 145 63 29 140 64 170
78 30 13 80 36 110 50 30 15 125 58 210 96 85 39 161 79 168 90 19 28 5 70
-27 78 -35 10 -38 9 -157 -48 -58 -27 -180 -83 -272 -125 -92 -42 -196 -89
-232 -106 -36 -17 -108 -50 -160 -73 -52 -23 -165 -74 -251 -114 l-157 -71
-163 34 c-90 20 -268 56 -396 83 l-232 47 -3 133 c-3 119 -1 133 14 133 9 0
157 -29 330 -65 521 -109 459 -100 509 -77 190 85 865 394 947 433 57 27 106
49 108 49 2 0 33 13 69 30 78 36 97 65 71 105 -10 15 -26 25 -41 25 -20 0
-260 -105 -545 -238 -36 -16 -200 -91 -364 -166 l-299 -136 -101 20 c-56 11
-211 42 -346 70 -135 28 -269 56 -297 62 -46 9 -53 14 -53 35 0 13 9 42 19 64
l19 39 -21 5 c-12 3 -85 18 -162 34 l-140 30 -17 -20 c-10 -12 -23 -39 -29
-60 -7 -21 -18 -39 -24 -39 -26 0 -207 40 -225 50 -60 32 -79 126 -38 186 45
65 88 71 248 36 91 -20 191 -41 455 -96 66 -14 219 -46 340 -71 121 -25 258
-53 305 -62 l85 -15 90 42 c195 90 293 135 635 291 195 89 388 176 427 194 84
39 106 68 80 108 -12 19 -34 27 -123 45 -60 13 -161 34 -224 47 -63 13 -194
40 -290 60 -96 20 -281 58 -411 86 -129 27 -251 49 -270 49 -19 -1 -102 -31
-194 -71z m760 -158 l520 -108 -89 -41 c-49 -23 -90 -42 -92 -42 -4 0 -169
-76 -364 -167 -41 -20 -104 -48 -140 -63 -36 -15 -103 -46 -150 -68 -47 -22
-108 -50 -137 -62 l-52 -22 -198 40 c-109 23 -286 59 -393 82 -107 22 -262 54
-345 71 -82 16 -158 33 -168 37 -12 5 59 40 240 116 142 60 292 124 333 142
264 117 478 202 495 198 11 -2 254 -53 540 -113z m-1717 -828 l82 -17 0 -133
c0 -73 -4 -133 -9 -133 -23 0 -200 40 -222 50 -62 29 -88 127 -49 188 19 31
67 61 100 62 8 0 52 -8 98 -17z m309 -266 c28 -40 50 -74 48 -76 -4 -3 -208
39 -214 45 -7 6 92 104 104 103 5 0 33 -32 62 -72z"/>
<path d="M1537 2305 c-43 -18 -80 -34 -82 -37 -5 -5 679 -148 708 -148 20 0
173 68 166 74 -2 2 -62 16 -134 31 -71 14 -227 46 -345 71 -118 24 -219 44
-225 43 -5 0 -45 -16 -88 -34z"/>
</g>
</svg>
