<?xml version="1.0" standalone="no"?>
<!DOCTYPE svg PUBLIC "-//W3C//DTD SVG 20010904//EN"
 "http://www.w3.org/TR/2001/REC-SVG-20010904/DTD/svg10.dtd">
<svg version="1.0" xmlns="http://www.w3.org/2000/svg"
 width="360.000000pt" height="360.000000pt" viewBox="0 0 360.000000 360.000000"
 preserveAspectRatio="xMidYMid meet">

<g transform="translate(0.000000,360.000000) scale(0.100000,-0.100000)"
fill="#000000" stroke="none">
<path d="M1840 3519 c-159 -20 -324 -70 -464 -141 l-80 -40 -86 11 c-195 25
-438 9 -596 -40 -155 -47 -305 -143 -394 -250 -51 -61 -106 -147 -98 -154 2
-2 31 4 63 14 139 43 287 50 316 15 6 -8 10 -16 8 -17 -2 -1 -29 -14 -59 -28
-182 -87 -321 -265 -382 -489 -20 -76 -23 -107 -23 -290 0 -176 4 -220 24
-315 49 -231 115 -428 232 -693 60 -137 88 -184 75 -129 -10 44 -7 443 4 537
22 177 60 322 110 420 l23 45 12 -47 c21 -79 56 -139 119 -203 51 -52 154
-125 178 -125 3 0 9 19 13 43 12 68 61 203 100 275 110 199 280 333 500 393
95 26 195 22 265 -8 189 -84 386 -361 507 -713 16 -44 31 -80 34 -80 16 0 188
139 258 208 175 174 271 356 271 517 l0 56 41 -23 c93 -52 187 -186 263 -376
88 -218 143 -434 212 -832 l6 -35 24 40 c186 303 272 779 214 1179 -30 203
-171 494 -340 701 -125 153 -339 329 -502 411 -261 132 -592 196 -848 163z"/>
<path d="M1336 2104 c-28 -25 -28 -25 -9 -47 10 -12 59 -66 107 -120 49 -53
87 -99 85 -101 -2 -2 -49 -23 -104 -46 -55 -24 -103 -46 -108 -50 -8 -7 259
-303 278 -308 6 -1 21 8 32 20 l22 23 -104 115 c-58 63 -105 117 -105 120 0 3
21 14 48 24 26 11 75 33 110 48 l63 29 -123 135 c-68 75 -132 147 -143 160
l-20 23 -29 -25z"/>
<path d="M982 1466 c-41 -8 -112 -33 -160 -56 -69 -33 -101 -56 -166 -123 -50
-50 -94 -106 -114 -144 -67 -128 -89 -302 -56 -443 52 -222 239 -410 463 -466
97 -24 264 -16 358 18 239 85 402 302 420 558 8 104 27 130 96 130 73 0 94
-24 102 -118 22 -253 146 -439 360 -542 97 -46 159 -60 273 -60 438 0 740 438
586 849 -67 178 -214 317 -398 378 -111 36 -256 37 -366 4 -169 -51 -306 -166
-385 -322 -25 -50 -45 -97 -45 -105 0 -18 -5 -18 -34 1 -37 25 -115 30 -160
11 -47 -20 -56 -20 -56 -2 0 7 -19 51 -42 97 -59 119 -163 222 -279 277 -46
22 -105 45 -131 51 -79 19 -188 21 -266 7z m237 -111 c332 -79 500 -454 338
-759 -82 -156 -280 -276 -457 -276 -114 0 -263 59 -351 138 -113 101 -169 229
-169 386 0 158 43 262 154 371 135 134 304 182 485 140z m1456 0 c227 -58 384
-243 401 -475 25 -323 -270 -598 -591 -552 -254 37 -454 264 -455 518 0 71 34
196 72 262 112 196 357 302 573 247z"/>
</g>
</svg>
