<?xml version="1.0" encoding="UTF-8" standalone="no"?>
<!-- Uploaded to: SVG Repo, www.svgrepo.com, Generator: SVG Repo Mixer Tools -->

<svg
   width="450"
   height="450"
   viewBox="-20 0 106.875 106.875"
   fill="none"
   version="1.1"
   id="svg1"
   sodipodi:docname="placeholder-hat.svg"
   inkscape:version="1.4 (86a8ad7, 2024-10-11)"
   xmlns:inkscape="http://www.inkscape.org/namespaces/inkscape"
   xmlns:sodipodi="http://sodipodi.sourceforge.net/DTD/sodipodi-0.dtd"
   xmlns="http://www.w3.org/2000/svg"
   xmlns:svg="http://www.w3.org/2000/svg">
  <defs
     id="defs1" />
  <sodipodi:namedview
     id="namedview1"
     pagecolor="#ffffff"
     bordercolor="#000000"
     borderopacity="0.25"
     inkscape:showpageshadow="2"
     inkscape:pageopacity="0.0"
     inkscape:pagecheckerboard="0"
     inkscape:deskcolor="#d1d1d1"
     inkscape:zoom="0.96625"
     inkscape:cx="209.05563"
     inkscape:cy="180.59508"
     inkscape:window-width="1920"
     inkscape:window-height="991"
     inkscape:window-x="1691"
     inkscape:window-y="-9"
     inkscape:window-maximized="1"
     inkscape:current-layer="svg1" />
  <path
     fill-rule="evenodd"
     clip-rule="evenodd"
     d="m 51.163,55.878711 5.897,21.186999 26.112,2.621 c -4.077,7.477 -14.847,13.023 -31.924,10.845 -15.786,-2.013 -17.45,5.897 -28.141,5.897 -33.036,0 -39.404,-26.724 -39.404,-26.724 l 23.038,2.312 -0.71,-9.863 c 0,0 11.39,-13.741899 14.094,-37.781899 11.932,-20.1039996 36.216,-16.5769996 44.723,-1.252 l -13.956,0.337 c 0.982,3.61 -2.987,6.93 -6.115,7.148 l 3.831,10.955 5.257,3.021 -11.3,8.3519 0.983,3.193 z m -25.698,-14.8499 -1.474,12.7729 12.167,2.112 0.982,-3.193 z m -6.811,28.386899 1.059,2.235 c 14.183,0 21.606,-3.14 21.606,-3.14 l 8.558,3.729 0.967,-1.476 c -5.713,-10.297 -21.148,-9.655 -32.19,-1.348 z"
     fill="#000000"
     id="path1" />
</svg>
