<?xml version="1.0" standalone="no"?>
<!DOCTYPE svg PUBLIC "-//W3C//DTD SVG 20010904//EN"
 "http://www.w3.org/TR/2001/REC-SVG-20010904/DTD/svg10.dtd">
<svg version="1.0" xmlns="http://www.w3.org/2000/svg"
 width="512.000000pt" height="512.000000pt" viewBox="0 0 512.000000 512.000000"
 preserveAspectRatio="xMidYMid meet">

<g transform="translate(0.000000,512.000000) scale(0.100000,-0.100000)"
fill="#000000" stroke="none">
<path d="M1715 4374 c-820 -145 -1500 -268 -1513 -273 -48 -22 -48 -42 -3
-294 l41 -235 0 -1215 0 -1215 26 -31 26 -31 869 0 870 0 24 25 c33 32 33 78
0 110 l-24 25 -816 0 -815 0 0 880 0 880 1440 0 1440 0 0 -157 c0 -173 7 -199
54 -221 32 -16 80 -2 96 29 6 10 10 202 10 477 0 438 -1 461 -19 483 l-19 24
-1065 5 -1065 5 1016 179 c560 99 1032 183 1049 188 21 6 39 20 48 38 14 27
12 48 -30 287 -41 234 -48 260 -71 281 -14 12 -37 22 -52 21 -15 -1 -697 -120
-1517 -265z m1472 -27 c-2 -14 -16 -8 -81 37 -84 59 -84 60 4 73 l55 9 12 -51
c7 -27 12 -58 10 -68z m-195 -77 c97 -69 176 -126 175 -126 -4 -4 -636 -114
-653 -114 -16 0 -326 209 -362 244 -11 11 7 16 97 31 l110 17 115 -81 c63 -45
126 -86 140 -92 54 -25 117 35 102 96 -4 16 -29 42 -66 68 -33 23 -60 45 -60
48 0 7 169 37 200 35 14 -1 105 -58 202 -126z m-899 -152 c97 -68 177 -126
177 -129 0 -10 -207 -42 -221 -34 -8 5 -92 63 -188 129 l-174 121 84 17 c140
27 126 32 322 -104z m-445 -81 c94 -66 172 -123 172 -127 0 -4 -47 -15 -104
-24 l-105 -17 -182 127 c-101 70 -178 129 -172 131 33 11 200 39 208 35 6 -3
88 -59 183 -125z m-455 -71 c98 -69 178 -128 177 -133 -1 -12 -192 -45 -211
-36 -24 11 -358 247 -355 251 2 2 97 21 206 41 3 1 86 -55 183 -123z m-436
-86 c155 -108 181 -130 161 -134 -12 -3 -62 -12 -111 -20 l-87 -15 -180 126
c-99 69 -178 129 -175 132 4 4 159 35 198 40 5 1 92 -57 194 -129z m-270 -207
c-2 -2 -25 -7 -50 -12 -51 -9 -49 -11 -62 62 l-6 39 60 -43 c33 -24 59 -44 58
-46z m318 -353 l160 -160 -115 0 -115 0 -152 152 c-84 84 -153 156 -153 160 0
5 48 8 108 8 l107 0 160 -160z m450 0 l160 -160 -110 0 -110 0 -160 160 -160
160 110 0 110 0 160 -160z m460 0 l160 -160 -115 0 -115 0 -160 160 -160 160
115 0 115 0 160 -160z m900 0 l160 -160 -110 0 -110 0 -85 86 c-119 120 -158
137 -205 89 -38 -37 -33 -77 16 -130 l42 -45 -114 0 -114 0 -160 160 -160 160
340 0 340 0 160 -160z m450 0 l160 -160 -110 0 -110 0 -160 160 -160 160 110
0 110 0 160 -160z m215 90 c0 -38 -1 -70 -3 -70 -1 0 -34 32 -72 70 l-69 70
72 0 72 0 0 -70z m-2815 -200 l49 -50 -57 0 -57 0 0 50 c0 28 4 50 8 50 4 0
30 -22 57 -50z"/>
<path d="M1745 2834 c-343 -56 -590 -321 -621 -667 -8 -89 15 -226 52 -317
155 -384 604 -557 976 -377 l87 42 3 -445 3 -445 32 -67 c44 -93 100 -151 191
-196 l76 -37 423 -3 423 -3 25 25 c33 33 33 79 0 111 l-24 25 -392 0 c-278 0
-404 4 -433 12 -55 16 -138 99 -154 154 -17 58 -17 890 0 948 16 55 99 138
154 154 59 17 1369 17 1428 0 55 -16 138 -99 154 -154 17 -58 17 -890 0 -948
-16 -55 -99 -138 -154 -154 -25 -7 -103 -12 -193 -12 -148 0 -153 -1 -176 -25
-33 -32 -33 -78 0 -111 l26 -26 183 4 182 3 76 37 c131 66 213 184 225 327 3
39 8 71 11 71 3 0 126 -45 272 -100 146 -55 276 -100 289 -100 12 0 33 11 46
25 l25 24 0 231 0 231 -25 24 c-32 33 -78 33 -110 0 -24 -24 -25 -28 -25 -180
0 -121 -3 -156 -13 -153 -7 2 -115 41 -240 88 l-227 85 0 185 0 185 227 85
c124 47 232 86 240 88 10 3 13 -14 13 -73 0 -67 3 -79 25 -100 32 -33 78 -33
110 0 24 23 25 28 25 175 0 147 -1 152 -25 175 -13 14 -34 25 -46 25 -13 0
-143 -45 -289 -100 -146 -55 -269 -100 -272 -100 -3 0 -8 32 -11 71 -7 87 -48
179 -107 243 -51 56 -160 112 -233 121 l-52 7 35 71 c33 66 35 77 35 167 0 91
-2 100 -37 172 -45 91 -103 147 -196 191 -61 29 -76 32 -162 32 -86 0 -101 -3
-163 -32 -86 -41 -166 -120 -197 -196 l-23 -54 -38 37 c-65 63 -121 84 -219
85 -100 0 -159 -23 -225 -90 -98 -98 -119 -229 -59 -372 4 -9 -7 -13 -38 -13
-24 0 -58 -4 -76 -9 -29 -9 -32 -8 -28 7 32 106 35 264 7 374 -28 107 -82 212
-119 227 -31 13 -69 4 -89 -20 -26 -33 -24 -59 7 -125 43 -91 60 -165 60 -257
0 -156 -52 -279 -165 -392 -114 -115 -236 -165 -396 -165 -154 0 -281 53 -390
160 -188 185 -221 478 -80 699 45 70 148 163 220 199 162 81 348 80 509 -2 60
-30 79 -32 110 -10 32 22 43 57 31 93 -12 35 -88 78 -194 111 -69 21 -234 34
-300 24z m1929 -446 c86 -26 166 -136 166 -228 0 -124 -116 -240 -240 -240
-124 0 -240 116 -240 240 0 63 23 114 75 165 70 71 145 90 239 63z m-651 -162
c103 -43 128 -177 48 -257 -65 -65 -157 -65 -222 0 -124 123 13 325 174 257z
m251 -291 c4 -10 -1 -15 -14 -15 -20 0 -26 11 -13 23 10 11 20 8 27 -8z"/>
<path d="M3545 2215 c-50 -49 -15 -135 55 -135 41 0 80 39 80 80 0 41 -39 80
-80 80 -19 0 -40 -9 -55 -25z"/>
<path d="M1643 2510 c-12 -5 -26 -18 -32 -29 -7 -13 -11 -140 -11 -366 l0
-346 25 -24 c44 -45 61 -37 342 150 200 133 264 181 269 200 15 59 5 68 -269
250 -144 96 -271 175 -282 174 -11 0 -30 -4 -42 -9z m366 -390 c0 -3 -56 -42
-124 -88 l-125 -82 0 170 0 170 125 -82 c68 -46 124 -85 124 -88z"/>
<path d="M2665 1575 c-16 -15 -25 -36 -25 -55 0 -19 9 -40 25 -55 l24 -25 391
0 391 0 24 25 c16 15 25 36 25 55 0 19 -9 40 -25 55 l-24 25 -391 0 -391 0
-24 -25z"/>
<path d="M3785 1575 c-50 -49 -15 -135 55 -135 41 0 80 39 80 80 0 41 -39 80
-80 80 -19 0 -40 -9 -55 -25z"/>
<path d="M2585 1255 l-25 -24 0 -271 0 -271 25 -24 24 -25 471 0 471 0 24 25
25 24 0 271 0 271 -25 24 -24 25 -471 0 -471 0 -24 -25z m855 -295 l0 -160
-360 0 -360 0 0 160 0 160 360 0 360 0 0 -160z"/>
<path d="M3785 1175 c-50 -49 -15 -135 55 -135 41 0 80 39 80 80 0 41 -39 80
-80 80 -19 0 -40 -9 -55 -25z"/>
<path d="M3785 775 c-50 -49 -15 -135 55 -135 41 0 80 39 80 80 0 41 -39 80
-80 80 -19 0 -40 -9 -55 -25z"/>
</g>
</svg>
