<?xml version="1.0" standalone="no"?>
<!DOCTYPE svg PUBLIC "-//W3C//DTD SVG 20010904//EN"
 "http://www.w3.org/TR/2001/REC-SVG-20010904/DTD/svg10.dtd">
<svg version="1.0" xmlns="http://www.w3.org/2000/svg"
 width="348.000000pt" height="348.000000pt" viewBox="0 0 348.000000 348.000000"
 preserveAspectRatio="xMidYMid meet">

<g transform="translate(0.000000,348.000000) scale(0.100000,-0.100000)"
fill="#000000" stroke="none">
<path d="M466 3213 c-9 -60 -24 -149 -33 -199 l-16 -92 -134 -33 c-74 -18
-128 -36 -121 -39 7 -4 66 -20 132 -35 65 -16 120 -34 123 -41 2 -6 19 -99 38
-205 18 -107 34 -189 35 -184 0 6 16 98 34 205 l32 194 128 32 c70 18 129 34
132 37 2 2 -55 19 -128 38 l-132 34 -32 193 c-18 107 -34 195 -36 198 -3 2
-12 -44 -22 -103z"/>
<path d="M2425 3045 c-25 -24 -27 -32 -21 -73 18 -134 211 -391 412 -548 150
-117 293 -181 349 -156 104 48 1 277 -230 508 -173 173 -326 275 -438 290 -40
6 -48 4 -72 -21z"/>
<path d="M1879 2991 c-15 -5 -81 -62 -149 -128 l-122 -120 -92 -6 c-498 -33
-935 -369 -1104 -849 -49 -138 -66 -243 -66 -413 0 -348 123 -645 369 -890
253 -254 546 -376 901 -376 258 0 493 72 713 218 104 70 269 232 334 330 53
81 124 225 156 320 27 82 61 272 61 347 l0 61 111 110 c133 131 143 148 137
229 -5 61 -47 177 -66 184 -5 1 -32 -14 -60 -34 l-50 -37 19 -41 c10 -23 19
-56 19 -75 0 -32 -1 -33 -32 -27 -37 7 -201 86 -236 114 l-23 18 146 109 c80
60 145 111 145 115 0 3 -26 16 -57 29 -59 26 -174 105 -265 181 -137 115 -271
280 -339 418 -23 45 -42 82 -44 82 -1 0 -48 -60 -104 -134 -56 -73 -107 -139
-115 -145 -11 -9 -18 -6 -35 18 -36 50 -102 189 -108 226 -5 32 -3 35 18 35
13 -1 49 -9 79 -20 30 -10 58 -16 61 -12 33 40 69 92 69 100 0 15 -129 59
-190 66 -30 3 -67 1 -81 -3z m-69 -275 c0 -8 16 -45 36 -82 171 -322 599 -749
919 -916 l105 -54 -75 -74 -75 -74 -69 22 c-149 48 -348 197 -591 441 -188
190 -281 308 -355 455 -64 125 -62 143 22 228 69 70 83 79 83 54z m-287 -177
c14 -154 190 -416 455 -679 287 -284 546 -456 705 -468 l58 -4 -6 -57 c-18
-158 -108 -392 -197 -511 -373 -497 -1030 -623 -1534 -295 -112 73 -258 215
-329 321 -384 571 -180 1333 441 1643 85 42 216 85 304 100 101 16 97 19 103
-50z"/>
<path d="M796 2005 c-61 -66 -136 -255 -157 -395 -16 -110 -7 -293 20 -395 38
-143 130 -312 230 -419 112 -120 308 -236 471 -278 71 -19 111 -22 245 -22
144 1 169 3 250 28 199 59 377 176 494 322 92 113 96 124 96 234 0 86 -3 101
-32 163 -78 165 -266 277 -493 294 -92 6 -276 -19 -369 -52 -36 -13 -106 -37
-156 -55 -77 -28 -98 -32 -155 -27 -88 7 -132 22 -182 60 -105 79 -148 202
-148 420 0 91 -2 100 -25 122 -31 32 -60 32 -89 0z"/>
<path d="M3034 749 l-19 -122 -70 -19 c-38 -11 -77 -22 -85 -25 -8 -3 23 -15
70 -27 l85 -21 20 -125 21 -125 18 114 c10 63 20 120 23 127 2 7 40 21 84 30
43 10 75 21 71 25 -4 3 -40 14 -79 25 -46 11 -74 24 -77 33 -3 9 -12 63 -21
121 -10 58 -18 106 -20 108 -1 2 -11 -52 -21 -119z"/>
</g>
</svg>
