<?xml version="1.0" standalone="no"?>
<!DOCTYPE svg PUBLIC "-//W3C//DTD SVG 20010904//EN"
 "http://www.w3.org/TR/2001/REC-SVG-20010904/DTD/svg10.dtd">
<svg version="1.0" xmlns="http://www.w3.org/2000/svg"
 width="512.000000pt" height="431.000000pt" viewBox="0 0 512.000000 431.000000"
 preserveAspectRatio="xMidYMid meet">

<g transform="translate(0.000000,431.000000) scale(0.100000,-0.100000)"
fill="#000000" stroke="none">
<path d="M2488 4196 c-37 -62 -107 -184 -156 -272 -49 -87 -420 -730 -824
-1429 -985 -1702 -1410 -2437 -1415 -2452 -4 -10 488 -13 2461 -13 1356 0
2466 2 2466 5 0 8 -518 911 -1022 1785 -1229 2128 -1431 2476 -1437 2482 -3 4
-36 -44 -73 -106z m-18 -935 l0 -538 -62 -7 c-152 -17 -367 -88 -492 -163 -85
-51 -212 -151 -268 -211 -27 -28 -48 -47 -48 -43 0 10 338 600 822 1434 21 37
41 67 43 67 3 0 5 -242 5 -539z m190 530 c0 -5 23 -47 52 -93 28 -45 146 -249
263 -453 237 -414 506 -882 538 -935 15 -25 -7 -9 -78 59 -209 198 -445 311
-735 349 l-55 7 -3 538 c-1 356 1 537 8 537 5 0 10 -4 10 -9z m-190 -2337 l0
-1097 -52 7 c-146 18 -343 88 -444 157 -355 240 -530 581 -511 992 9 199 75
404 179 554 170 248 439 422 723 468 44 7 86 13 93 14 9 1 12 -224 12 -1095z
m346 1066 c260 -60 502 -226 654 -450 212 -312 247 -732 90 -1067 -129 -276
-385 -505 -665 -596 -46 -15 -210 -47 -241 -47 -12 0 -14 175 -14 1096 l0
1095 48 -6 c26 -4 83 -15 128 -25z m-1475 -698 c-37 -95 -54 -239 -48 -420 7
-225 36 -337 139 -533 167 -321 473 -567 796 -641 l57 -13 -90 -6 c-166 -12
-1805 -10 -1805 2 0 11 360 637 658 1144 91 154 196 333 234 398 38 64 71 117
73 117 3 0 -4 -22 -14 -48z m2641 -322 c299 -508 738 -1278 738 -1294 0 -3
-429 -6 -952 -6 l-953 1 115 38 c472 157 782 504 877 979 25 129 24 377 -4
502 -12 52 -24 104 -28 115 l-7 20 14 -20 c8 -11 98 -162 200 -335z"/>
</g>
</svg>
