<?xml version="1.0" encoding="UTF-8" standalone="no"?>
<svg
   version="1.0"
   width="300"
   height="300"
   viewBox="0 0 225 225"
   preserveAspectRatio="xMidYMid"
   id="svg7"
   sodipodi:docname="wand-icon.svg"
   inkscape:version="1.4 (86a8ad7, 2024-10-11)"
   xmlns:inkscape="http://www.inkscape.org/namespaces/inkscape"
   xmlns:sodipodi="http://sodipodi.sourceforge.net/DTD/sodipodi-0.dtd"
   xmlns="http://www.w3.org/2000/svg"
   xmlns:svg="http://www.w3.org/2000/svg">
  <defs
     id="defs7" />
  <sodipodi:namedview
     id="namedview7"
     pagecolor="#ffffff"
     bordercolor="#000000"
     borderopacity="0.25"
     inkscape:showpageshadow="2"
     inkscape:pageopacity="0.0"
     inkscape:pagecheckerboard="0"
     inkscape:deskcolor="#d1d1d1"
     inkscape:document-units="pt"
     inkscape:zoom="0.80067413"
     inkscape:cx="281.0132"
     inkscape:cy="426.51559"
     inkscape:window-width="1920"
     inkscape:window-height="991"
     inkscape:window-x="1691"
     inkscape:window-y="-9"
     inkscape:window-maximized="1"
     inkscape:current-layer="svg7" />
  <g
     transform="matrix(0.10499579,0,0,-0.10499579,-150.35948,385.22657)"
     fill="#000000"
     stroke="none"
     id="g7">
    <path
       d="m 3127,3503 c -15,-29 -22,-33 -60,-33 h -42 l 33,-22 c 30,-21 32,-26 27,-63 l -6,-40 29,33 c 22,24 37,32 63,32 h 34 l -27,23 c -20,16 -28,33 -30,62 l -3,40 z"
       id="path1" />
    <path
       d="m 2802,3373 c -11,-11 -10,-16 2,-29 14,-13 16,-13 16,-1 0,9 4,17 9,19 5,2 4,8 -3,14 -9,8 -15,7 -24,-3 z"
       id="path2" />
    <path
       d="m 2575,3193 c -16,-27 -26,-33 -55,-33 l -35,-1 28,-22 c 20,-17 27,-32 27,-57 l 1,-35 22,28 c 18,21 31,27 62,27 h 40 l -30,20 c -24,15 -31,29 -35,62 l -5,43 z"
       id="path3" />
    <path
       d="m 3231,3131 c -10,-6 -9,-10 3,-14 8,-3 18,-2 21,3 8,13 -9,20 -24,11 z"
       id="path4" />
    <path
       d="m 2738,2989 c -41,-52 -168,-215 -283,-363 -115,-148 -233,-289 -262,-314 -29,-25 -106,-116 -170,-201 -64,-86 -134,-180 -156,-208 -21,-29 -54,-62 -72,-73 -38,-24 -45,-37 -45,-90 0,-31 6,-43 29,-59 16,-12 39,-21 51,-21 33,0 89,50 100,90 6,19 53,94 105,165 52,72 166,236 252,365 162,244 213,315 414,576 118,154 141,196 121,216 -7,7 -33,-19 -84,-83 z"
       id="path5" />
    <path
       d="m 3002,3041 c -11,-6 -9,-9 7,-14 12,-3 22,1 25,9 6,16 -12,18 -32,5 z"
       id="path6" />
    <path
       d="m 2925,2788 c -4,-11 -18,-18 -34,-18 -22,-1 -24,-2 -8,-11 9,-5 17,-19 17,-31 0,-20 1,-20 18,-5 10,10 24,17 32,17 9,0 9,4 2,13 -5,6 -12,21 -14,32 -5,18 -6,18 -13,3 z"
       id="path7" />
  </g>
</svg>
